# xmcd CD Database Entry
#
# Track frame offsets:
# 150
# 19540
# 48421
# 71558
# 86617
# 90639
# 122594
# 145750
# 172851
# 214309
# 226131
# 235647
#
# Disc length: 3710 seconds
#
# Revision: 2
# Processed by: cddbd v1.4PL0 Copyright (c) Steve Scherf et al.
# Submitted via: tcd 2.0b
#
DISCID=910e7c0c
DTITLE=the NEW DEAL - the NEW DEAL
DYEAR=1900
DGENRE=Techno
TTITLE0=Back To The Middle
TTITLE1=Receiver
TTITLE2=Exciting New Direction
TTITLE3=Self Orbit
TTITLE4=Intro (Deep Sun)
TTITLE5=Deep Sun
TTITLE6=Glide
TTITLE7=Talk Show
TTITLE8=Technobeam
TTITLE9=The Ray Parker Suite: Part I
TTITLE10=The Ray Parker Suite: Part II
TTITLE11=Then And Now
EXTD=ID3G:  18
EXTT0=
EXTT1=
EXTT2=
EXTT3=
EXTT4=
EXTT5=
EXTT6=
EXTT7=
EXTT8=
EXTT9=
EXTT10=
EXTT11=
PLAYORDER=
